<?xml version="1.0" encoding="utf-8"?>
<svg viewBox="0 0 512 512" style="enable-background:new 0 0 512 512;" xmlns="http://www.w3.org/2000/svg" xmlns:bx="https://boxy-svg.com">
  <path style="fill: rgb(255, 102, 67); opacity: 1;" d="M 256 49.999 C 142.412 49.999 50 142.412 50 255.999 C 50 369.586 142.412 461.999 256 461.999 C 369.588 461.999 462 369.586 462 255.999 C 462 142.412 369.588 49.999 256 49.999 Z M 256 89.87 C 294.633 89.87 330.228 103.125 358.478 125.329 L 125.33 358.477 C 103.126 330.227 89.87 294.633 89.87 255.999 C 89.87 164.394 164.395 89.87 256 89.87 Z M 256 422.128 C 217.367 422.128 181.772 408.873 153.522 386.67 L 386.671 153.521 C 408.874 181.771 422.13 217.365 422.13 255.999 C 422.13 347.604 347.605 422.128 256 422.128 Z" transform="matrix(-1, 0, 0, -1, 512, 511.99884)" bx:origin="0.5 0.500001"/>
  <path style="fill: rgb(255, 79, 25); opacity: 1;" d="M 256 49.999 L 256 89.87 C 294.633 89.87 330.228 103.125 358.478 125.329 L 256 227.804 L 256 284.193 L 386.671 153.52 C 408.874 181.77 422.13 217.364 422.13 255.998 C 422.13 347.603 347.606 422.127 256 422.127 L 256 461.999 C 369.588 461.999 462 369.586 462 255.999 C 462 142.412 369.588 49.999 256 49.999 Z" transform="matrix(-1, 0, 0, -1, 512, 511.99884)" bx:origin="0 0.500001"/>
  <g/>
  <g/>
  <g/>
  <g/>
  <g/>
  <g/>
  <g/>
  <g/>
  <g/>
  <g/>
  <g/>
  <g/>
  <g/>
  <g/>
  <g/>
</svg>