<?xml version="1.0" encoding="iso-8859-1"?>

<!DOCTYPE svg PUBLIC "-//W3C//DTD SVG 1.1//EN" "http://www.w3.org/Graphics/SVG/1.1/DTD/svg11.dtd">
<svg version="1.1" xmlns="http://www.w3.org/2000/svg" xmlns:xlink="http://www.w3.org/1999/xlink" x="0px" y="0px"
	 viewBox="0 0 512 512" style="enable-background:new 0 0 512 512;" xml:space="preserve">
<g id="lion">
	<g>
		<rect x="410" y="205" width="25" height="25"/>
		<rect x="435" y="282" width="26" height="25"/>
	</g>
	<rect x="409.6" y="307.001" style="fill:#FF5425;" width="25.6" height="25.959"/>
	<polygon style="fill:#D19A43;" points="384,205 384,179 409.6,179 435,179 435,154 410,154 410,128 384,128 358,128 358,154 
		333,154 333,179 307,179 307,204.8 307,230.4 307,256 333,256 333,281.6 333,307.2 333,333 358,333 358,358 384,358 409.6,358 
		435,358 435,333 409.6,333 384,333 384,307.2 384,281.6 384,256 384,230 358,230 358,205 	"/>
	<g>
		<polygon style="fill:#DCB55E;" points="307,230.4 307,204.8 307,179 281.6,179 256,179 230.4,179 204.8,179 179.2,179 153.6,179 
			128,179 102,179 102,205 77,205 77,230 51,230 51,256 51,281.6 51,307.2 51,332.8 51,358.4 51,384 77,384 77,358.4 77,332.8 
			77,307 102,307 102,332.8 102,358.4 102,384 102,409.6 102,435.2 102,461 128,461 128,435.2 128,409.6 128,384 128,358 153.6,358 
			179.2,358 204.8,358 230.4,358 256,358 256,384 256,409.6 256,435.2 256,461 282,461 282,435.2 282,409.6 282,384 282,358 
			307.2,358 333,358 333,332.8 333,307.2 333,281.6 333,256 307,256 		"/>
		<polygon style="fill:#DCB55E;" points="435.2,230 410,230 410,205 435,205 435,179 409.6,179 384,179 384,205 358,205 358,230 
			384,230 384,256 384,281.6 384,307.2 384,333 410,333 410,307 435,307 435,282 461,282 461,256 461,230 		"/>
	</g>
	<g>
		<polygon style="fill:#9D7A48;" points="154,384 154,409.6 154,435.2 154,461 179,461 179,435.2 179,409.6 179,384 179,358 
			154,358 		"/>
		<polygon style="fill:#9D7A48;" points="307,358 307,384 307,409.6 307,435.2 307,461 333,461 333,435.2 333,409.6 333,384 
			333,358 		"/>
	</g>
</g>
<g id="Layer_1">
</g>
</svg>
