<?xml version="1.0" encoding="utf-8"?>
<svg viewBox="0 0 110.495 51.611" xmlns="http://www.w3.org/2000/svg">
  <g id="svgGroup" stroke-linecap="round" fill-rule="evenodd" font-size="9pt" stroke="#f4ff91" stroke-width="0mm" fill="#ffa099" style="stroke:#f4ff91;stroke-width:0mm;fill:#ffa099" transform="matrix(1, 0, 0, 1, -5.257692, -0.125183)">
    <path d="M 75.834 11.537 L 83.98 11.537 L 83.98 38.464 C 83.98 38.823 83.993 39.243 84.018 39.723 C 84.03 39.964 84.045 40.204 84.061 40.444 C 84.116 41.236 84.265 42.015 84.51 42.781 C 84.754 43.546 85.12 44.206 85.609 44.761 C 86.098 45.315 86.777 45.592 87.646 45.592 C 88.731 45.571 89.753 45.09 90.441 44.274 C 91.723 42.908 92.745 40.478 93.505 36.986 C 93.507 36.977 93.509 36.968 93.511 36.959 L 96.525 36.959 C 95.928 40.286 95.168 42.912 94.244 44.84 C 93.596 46.194 92.92 47.32 92.217 48.218 C 91.939 48.576 91.637 48.916 91.312 49.235 C 90.934 49.605 90.526 49.944 90.09 50.247 C 89.448 50.689 88.796 50.998 88.135 51.176 C 87.048 51.466 86.071 51.611 85.202 51.611 C 84.019 51.611 82.995 51.421 82.13 51.043 C 82.081 51.022 82.032 51 81.984 50.977 C 81.198 50.613 80.486 50.114 79.883 49.504 C 79.822 49.442 79.762 49.378 79.704 49.314 C 79.089 48.635 78.593 47.862 78.234 47.027 C 78.221 46.998 78.209 46.968 78.196 46.938 C 77.816 46.041 77.517 45.117 77.3 44.166 C 76.972 45.001 76.577 45.81 76.12 46.586 C 75.296 47.968 74.332 49.049 73.227 49.829 C 72.466 50.375 71.63 50.813 70.743 51.13 C 69.842 51.448 68.891 51.611 67.932 51.611 C 66.623 51.616 65.319 51.459 64.052 51.143 C 63.851 51.092 63.65 51.037 63.451 50.977 C 62.039 50.555 60.817 49.855 59.785 48.879 C 59.127 48.248 58.567 47.527 58.123 46.738 C 57.82 46.204 57.559 45.649 57.341 45.077 C 57.067 44.348 56.862 43.595 56.729 42.828 C 56.54 41.777 56.445 40.612 56.445 39.335 L 56.445 11.537 L 64.592 11.537 L 64.592 38.464 C 64.589 39.065 64.618 39.666 64.678 40.264 C 64.851 41.922 65.284 43.157 65.977 43.969 C 66.37 44.442 66.857 44.834 67.409 45.12 C 68.049 45.44 68.76 45.601 69.479 45.592 C 70.054 45.589 70.622 45.48 71.155 45.272 C 71.362 45.192 71.564 45.101 71.76 44.998 C 72.343 44.691 72.872 44.295 73.326 43.825 C 73.492 43.656 73.649 43.479 73.797 43.295 C 74.161 42.84 74.475 42.35 74.735 41.833 C 74.937 41.433 75.113 41.023 75.263 40.602 C 75.473 40.012 75.622 39.404 75.709 38.785 C 75.794 38.18 75.836 37.57 75.834 36.959 L 75.834 11.537 Z" id="1" vector-effect="non-scaling-stroke" style=""/>
    <path d="M 97.061 44.844 Q 97.061 42.117 98.98 40.097 Q 100.899 38.077 103.727 38.077 A 6.482 6.482 0 0 1 108.411 40.035 A 8.398 8.398 0 0 1 108.474 40.097 A 6.959 6.959 0 0 1 109.989 42.294 A 6.445 6.445 0 0 1 110.494 44.844 A 6.493 6.493 0 0 1 109.872 47.702 A 6.488 6.488 0 0 1 108.474 49.591 Q 106.454 51.51 103.727 51.51 A 6.862 6.862 0 0 1 101.089 51.015 A 6.431 6.431 0 0 1 98.98 49.591 A 6.433 6.433 0 0 1 97.061 44.932 A 8.275 8.275 0 0 1 97.061 44.844 Z" id="2" vector-effect="non-scaling-stroke"/>
  </g>
  <g id="g-1" stroke-linecap="round" fill-rule="evenodd" font-size="9pt" stroke="#f4ff91" stroke-width="0mm" fill="#ffa099" style="stroke:#f4ff91;stroke-width:0mm;fill:#ffa099" transform="matrix(-0.999995, 0.003731, -0.003731, -0.999995, 116.009506, 51.458679)">
    <path d="M 75.834 11.537 L 83.98 11.537 L 83.98 38.464 C 83.98 38.823 83.993 39.243 84.018 39.723 C 84.03 39.964 84.045 40.204 84.061 40.444 C 84.116 41.236 84.265 42.015 84.51 42.781 C 84.754 43.546 85.12 44.206 85.609 44.761 C 86.098 45.315 86.777 45.592 87.646 45.592 C 88.731 45.571 89.753 45.09 90.441 44.274 C 91.723 42.908 92.745 40.478 93.505 36.986 C 93.507 36.977 93.509 36.968 93.511 36.959 L 96.525 36.959 C 95.928 40.286 95.168 42.912 94.244 44.84 C 93.596 46.194 92.92 47.32 92.217 48.218 C 91.939 48.576 91.637 48.916 91.312 49.235 C 90.934 49.605 90.526 49.944 90.09 50.247 C 89.448 50.689 88.796 50.998 88.135 51.176 C 87.048 51.466 86.071 51.611 85.202 51.611 C 84.019 51.611 82.995 51.421 82.13 51.043 C 82.081 51.022 82.032 51 81.984 50.977 C 81.198 50.613 80.486 50.114 79.883 49.504 C 79.822 49.442 79.762 49.378 79.704 49.314 C 79.089 48.635 78.593 47.862 78.234 47.027 C 78.221 46.998 78.209 46.968 78.196 46.938 C 77.816 46.041 77.517 45.117 77.3 44.166 C 76.972 45.001 76.577 45.81 76.12 46.586 C 75.296 47.968 74.332 49.049 73.227 49.829 C 72.466 50.375 71.63 50.813 70.743 51.13 C 69.842 51.448 68.891 51.611 67.932 51.611 C 66.623 51.616 65.319 51.459 64.052 51.143 C 63.851 51.092 63.65 51.037 63.451 50.977 C 62.039 50.555 60.817 49.855 59.785 48.879 C 59.127 48.248 58.567 47.527 58.123 46.738 C 57.82 46.204 57.559 45.649 57.341 45.077 C 57.067 44.348 56.862 43.595 56.729 42.828 C 56.54 41.777 56.445 40.612 56.445 39.335 L 56.57 11.537 L 64.592 11.537 L 64.592 38.464 C 64.589 39.065 64.618 39.666 64.678 40.264 C 64.851 41.922 65.284 43.157 65.977 43.969 C 66.37 44.442 66.857 44.834 67.409 45.12 C 68.049 45.44 68.76 45.601 69.479 45.592 C 70.054 45.589 70.622 45.48 71.155 45.272 C 71.362 45.192 71.564 45.101 71.76 44.998 C 72.343 44.691 72.872 44.295 73.326 43.825 C 73.492 43.656 73.649 43.479 73.797 43.295 C 74.161 42.84 74.475 42.35 74.735 41.833 C 74.937 41.433 75.113 41.023 75.263 40.602 C 75.473 40.012 75.622 39.404 75.709 38.785 C 75.794 38.18 75.836 37.57 75.834 36.959 L 75.834 11.537 Z" id="path-3" vector-effect="non-scaling-stroke" style=""/>
    <path d="M 97.061 44.844 Q 97.061 42.117 98.98 40.097 Q 100.899 38.077 103.727 38.077 A 6.482 6.482 0 0 1 108.411 40.035 A 8.398 8.398 0 0 1 108.474 40.097 A 6.959 6.959 0 0 1 109.989 42.294 A 6.445 6.445 0 0 1 110.494 44.844 A 6.493 6.493 0 0 1 109.872 47.702 A 6.488 6.488 0 0 1 108.474 49.591 Q 106.454 51.51 103.727 51.51 A 6.862 6.862 0 0 1 101.089 51.015 A 6.431 6.431 0 0 1 98.98 49.591 A 6.433 6.433 0 0 1 97.061 44.932 A 8.275 8.275 0 0 1 97.061 44.844 Z" id="path-4" vector-effect="non-scaling-stroke"/>
  </g>
</svg>