<?xml version="1.0" encoding="iso-8859-1"?>

<!DOCTYPE svg PUBLIC "-//W3C//DTD SVG 1.1//EN" "http://www.w3.org/Graphics/SVG/1.1/DTD/svg11.dtd">
<svg version="1.1" xmlns="http://www.w3.org/2000/svg" xmlns:xlink="http://www.w3.org/1999/xlink" x="0px" y="0px"
	 viewBox="0 0 512 512" style="enable-background:new 0 0 512 512;" xml:space="preserve">
<g id="monkey">
	<rect x="409.6" y="204.8" width="25.6" height="25.6"/>
	<rect x="434.989" y="256" style="fill:#CE4D25;" width="25.811" height="25.97"/>
	<g>
		<polygon style="fill:#AE7F55;" points="128,179.2 128,153.6 128,128 128,102 102.4,102 76.8,102 51,102 51,128 51,154 77,154 
			77,128 102,128 102,153.6 102,179.2 102,204.8 102,230 128,230 128,204.8 		"/>
		<polygon style="fill:#AE7F55;" points="435,205 435,230 410,230 410,205 435,205 435,179 409.6,179 384,179 358,179 358,205 
			333,205 333,230 307,230 307,205 281.6,205 256,205 230.4,205 204.8,205 179,205 179,230 153.6,230 128,230 128,256 102,256 
			102,281.6 102,307.2 102,333 128,333 128,358.4 128,384 128,409.6 128,435 154,435 154,409.6 154,384 154,358 179.2,358 
			204.8,358 230,358 230,333 256,333 282,333 282,358.4 282,384 282,409.6 282,435 307,435 307,409.6 307,384 307,358 332.8,358 
			358,358 358,333 384,333 384,307 410,307 410,282 435,282 435,256 461,256 461,230.4 461,205 		"/>
		<rect x="154" y="435" style="fill:#AE7F55;" width="25" height="26"/>
		<rect x="307" y="435" style="fill:#AE7F55;" width="26" height="26"/>
	</g>
	<g>
		<polygon style="fill:#725641;" points="205,384 205,358 179,358 179,384 179,409.6 179,435 205,435 205,409.6 		"/>
		<polygon style="fill:#725641;" points="358,384 358,358 333,358 333,384 333,409.6 333,435 358,435 358,409.6 		"/>
		<rect x="205" y="435" style="fill:#725641;" width="25" height="26"/>
		<rect x="358" y="435" style="fill:#725641;" width="26" height="26"/>
	</g>
</g>
<g id="Layer_1">
</g>
</svg>
